<?xml version="1.0" standalone="no"?>
<!DOCTYPE svg PUBLIC "-//W3C//DTD SVG 20010904//EN"
 "http://www.w3.org/TR/2001/REC-SVG-20010904/DTD/svg10.dtd">
<svg version="1.0" xmlns="http://www.w3.org/2000/svg"
 width="260.000000pt" height="260.000000pt" viewBox="0 0 260.000000 260.000000"
 preserveAspectRatio="xMidYMid meet">
<metadata>
Created by potrace 1.14, written by Peter Selinger 2001-2017
</metadata>
<g transform="translate(0.000000,260.000000) scale(0.100000,-0.100000)"
fill="#000000" stroke="none">
<path d="M1518 2244 c-2 -1 -23 -3 -48 -5 -217 -13 -396 -218 -384 -438 3 -52
2 -54 -49 -105 -51 -50 -53 -51 -117 -52 -89 -2 -125 -10 -196 -44 -59 -29
-135 -96 -174 -155 -52 -77 -75 -231 -50 -325 40 -148 173 -280 308 -306 17
-3 33 -9 33 -13 1 -3 2 -89 3 -191 1 -102 6 -192 11 -201 26 -43 96 -40 112 4
4 12 8 99 9 192 1 94 2 177 3 186 1 11 13 19 34 23 60 12 136 54 193 110 l57
55 61 -2 c68 -3 151 18 215 54 22 12 43 21 45 18 3 -2 66 -64 140 -136 143
-141 162 -152 204 -113 43 41 32 62 -114 210 l-135 138 25 51 c34 67 54 154
49 218 -4 50 -2 54 36 88 54 49 97 117 118 184 10 31 21 58 24 61 4 3 85 5
181 4 95 0 185 3 200 8 51 18 54 98 4 115 -12 4 -102 8 -201 9 -99 1 -183 2
-186 3 -4 0 -10 16 -13 34 -20 106 -119 227 -228 277 -54 25 -162 53 -170 44z
m115 -91 c122 -48 205 -150 225 -275 12 -78 -3 -173 -37 -228 -30 -49 -73
-100 -84 -100 -7 0 -20 18 -30 40 -11 22 -41 65 -69 95 -105 116 -280 163
-427 116 l-64 -20 6 66 c11 114 78 224 171 278 91 53 216 65 309 28z m-204
-414 c53 -12 137 -65 174 -109 36 -42 70 -108 64 -124 -3 -7 -24 -18 -48 -25
-135 -41 -281 -2 -372 98 -35 38 -77 110 -77 130 0 10 76 37 120 43 32 5 84 0
139 -13z m-303 -101 c9 -18 27 -47 40 -65 l24 -32 -51 35 c-28 19 -57 34 -65
34 -18 0 -18 6 4 35 23 32 28 31 48 -7z m-186 -72 c0 -6 -6 -31 -14 -56 -53
-182 37 -393 208 -485 l55 -30 -37 -33 c-147 -135 -375 -126 -506 18 -178 197
-84 520 171 585 59 15 123 16 123 1z m167 -52 c123 -80 185 -248 145 -389 -21
-70 -25 -72 -74 -48 -159 77 -239 265 -183 432 20 60 27 61 112 5z m272 -95
c78 -24 175 -26 246 -4 28 8 54 15 59 15 12 0 0 -106 -19 -159 -30 -87 -118
-175 -206 -206 -24 -9 -72 -19 -106 -22 l-63 -5 16 38 c10 22 19 79 21 129 5
80 2 98 -21 159 -15 39 -38 85 -53 104 l-25 34 42 -31 c24 -17 73 -40 109 -52z"/>
</g>
</svg>
