<?xml version="1.0" standalone="no"?>
<!DOCTYPE svg PUBLIC "-//W3C//DTD SVG 20010904//EN"
 "http://www.w3.org/TR/2001/REC-SVG-20010904/DTD/svg10.dtd">
 <svg xmlns="http://www.w3.org/2000/svg" width="260" height="260" viewBox="2 0 40 40" fill="none" class="multi-search">
  <path fill="#626262" d="M27.742 22.344a6.5 6.5 0 1 0-1.397 1.398h-.001q.044.06.098.115l3.85 3.85a1 1 0 0 0 1.415-1.414l-3.85-3.85a1 1 0 0 0-.115-.1zM28 18.5a5.5 5.5 0 1 1-11 0 5.5 5.5 0 0 1 11 0"/>
  <path fill="#000" d="M16.989 27.617a6.5 6.5 0 1 0-1.977 0q-.012.074-.012.15v5.445a1 1 0 0 0 2 .001v-5.445a1 1 0 0 0-.01-.152zm2.9-2.536a5.5 5.5 0 1 1-7.778-7.778 5.5 5.5 0 0 1 7.778 7.778"/>
  <path fill="#888" d="M31.617 11.011a6.5 6.5 0 1 0 .001 1.977q.073.012.15.012h5.445a1 1 0 0 0 0-2H31.77a1 1 0 0 0-.152.01zm-2.535-2.9a5.5 5.5 0 1 1-7.779 7.778 5.5 5.5 0 0 1 7.779-7.778"/>
</svg>
