<svg xmlns="http://www.w3.org/2000/svg" width="32" height="32" viewBox="0 0 40 40" fill="none" class="multi-search"> <!-- fill set to 'none' for transparency -->
  <!-- Original icon -->
  <g transform="translate(16, 12)"> <!-- Centered the original icon -->
    <path fill="#626262" d="M11.742 10.344a6.5 6.5 0 1 0-1.397 1.398h-.001c.03.04.062.078.098.115l3.85 3.85a1 1 0 0 0 1.415-1.414l-3.85-3.85a1.007 1.007 0 0 0-.115-.1zM12 6.5a5.5 5.5 0 1 1-11 0 5.5 5.5 0 0 1 11 0z"/>
  </g>

  <!-- Rotated icon (+45 degrees) -->
  <g transform="translate(16, 12) rotate(45)"> <!-- Applied rotation -->
    <path fill="#000000" d="M11.742 10.344a6.5 6.5 0 1 0-1.397 1.398h-.001c.03.04.062.078.098.115l3.85 3.85a1 1 0 0 0 1.415-1.414l-3.85-3.85a1.007 1.007 0 0 0-.115-.1zM12 6.5a5.5 5.5 0 1 1-11 0 5.5 5.5 0 0 1 11 0z"/>
  </g>

  <!-- Rotated icon (-45 degrees) -->
  <g transform="translate(16, 12) rotate(-45)"> <!-- Applied rotation -->
    <path fill="#888888" d="M11.742 10.344a6.5 6.5 0 1 0-1.397 1.398h-.001c.03.04.062.078.098.115l3.85 3.85a1 1 0 0 0 1.415-1.414l-3.85-3.85a1.007 1.007 0 0 0-.115-.1zM12 6.5a5.5 5.5 0 1 1-11 0 5.5 5.5 0 0 1 11 0z"/>
  </g>
</svg>
